<svg width="19" height="20" viewBox="0 0 19 21" fill="none" xmlns="http://www.w3.org/2000/svg">
<path d="M13.8177 11.5344C13.8177 11.8352 13.5961 12.0859 13.33 12.0859C13.1379 12.0859 12.9754 11.9689 12.8867 11.7684L8.6601 2.10914C8.12808 0.889199 7.03448 0.120472 5.82266 0.120472H1.58128C0.709359 0.120472 0 0.922623 0 1.9086V15.8961H4.18227V4.5323C4.18227 4.19807 4.41872 3.91397 4.71429 3.91397C4.92118 3.91397 5.1133 4.04767 5.20197 4.2482L9.41379 13.8907C9.94581 15.1107 11.0394 15.8794 12.2512 15.8794H16.4187C17.2906 15.8794 18 15.0772 18 14.0913V0.10376H13.8325L13.8177 11.5344Z" fill="#e67e20"/>
</svg>
